<svg width="420" height="96" viewBox="0 0 420 96" fill="none" xmlns="http://www.w3.org/2000/svg">
  <defs>
    <linearGradient id="g1" x1="0" y1="0" x2="96" y2="96" gradientUnits="userSpaceOnUse">
      <stop stop-color="#5EA3FF"/>
      <stop offset="1" stop-color="#7B61FF"/>
    </linearGradient>
    <linearGradient id="g2" x1="18" y1="18" x2="78" y2="78" gradientUnits="userSpaceOnUse">
      <stop stop-color="#10182E"/>
      <stop offset="1" stop-color="#1C2A4F"/>
    </linearGradient>
  </defs>

  <rect x="0" y="0" width="96" height="96" rx="22" fill="url(#g1)"/>
  <path d="M18 30C18 23.3726 23.3726 18 30 18H66C72.6274 18 78 23.3726 78 30V66C78 72.6274 72.6274 78 66 78H30C23.3726 78 18 72.6274 18 66V30Z" fill="url(#g2)"/>
  <path d="M34 32H62V40H42V46H60V54H42V64H62V72H34V32Z" fill="#DDE9FF"/>
  <text x="114" y="44" fill="#0F1B33" font-family="Inter, Arial, sans-serif" font-size="29" font-weight="800" letter-spacing="0.2">EPICASCENT</text>
  <text x="114" y="69" fill="#4A5B80" font-family="Inter, Arial, sans-serif" font-size="20" font-weight="600" letter-spacing="0.8">LLC</text>
</svg>
